<svg width="501" height="150" viewBox="0 0 501 150" fill="none" xmlns="http://www.w3.org/2000/svg">
<path fill-rule="evenodd" clip-rule="evenodd" d="M81.5987 32.3415L28.8381 0.453195C28.5866 0.293331 28.3136 0.174536 28.0298 0.0987687C27.9112 0.0670503 27.791 0.042983 27.67 0.0265805C27.0084 -0.0633417 26.3141 0.0733826 25.7127 0.459768C25.6801 0.480699 25.6479 0.50223 25.6163 0.524344L1.25357 17.3463C0.64898 17.7637 0.251995 18.3696 0.0870415 19.0305C0.0585167 19.1445 0.0368157 19.2608 0.0222696 19.3787C0.00596783 19.5103 -0.00137411 19.6432 0.000424183 19.7762V81.7918C-0.00759254 82.2607 0.0979012 82.7365 0.327282 83.1769C0.392973 83.3033 0.467921 83.4248 0.551536 83.5404C0.799199 83.8833 1.11072 84.1577 1.45962 84.3572L54.1969 115.652C54.3192 115.727 54.4465 115.793 54.5774 115.849C54.9663 116.016 55.3831 116.093 55.7982 116.082C56.2333 116.071 56.6699 115.962 57.0734 115.749C57.1012 115.734 57.1288 115.719 57.1562 115.703C57.2416 115.655 57.3238 115.602 57.4029 115.546L81.7235 98.7529C81.7972 98.7031 81.8681 98.6502 81.9363 98.5944C82.3901 98.2229 82.7186 97.7239 82.8822 97.1665C82.9239 97.0245 82.9549 96.8787 82.9746 96.7303C82.9934 96.5885 83.0019 96.4452 82.9997 96.3016V34.9253C83.0001 34.8955 83.0001 34.8658 82.9997 34.836V34.8251C82.9997 33.8091 82.4683 32.867 81.5987 32.3415ZM8.54109 81.8103L52.8181 108.085V84.5295L27.3453 70.3934L8.54109 81.8103ZM24.3778 65.405V36.105L5.80457 24.8795V76.6816L24.3778 65.405ZM74.6008 96.6177L58.6223 107.65V87.7505L74.6008 96.6177ZM74.8002 35.0143L30.1819 8.04729V32.8311L55.6602 48.2301L74.8002 35.0143ZM58.6223 53.2381V81.1125L77.1955 91.4196V40.4137L58.6223 53.2381ZM24.3778 29.3231L8.24469 19.5724L24.3778 8.43283V29.3231ZM30.1819 39.613L52.8181 53.2942V77.8915L30.1819 65.3296V39.613Z" fill="black"/>
<path d="M152.72 56.3633C152.72 70.7833 142.12 79.4633 124.93 79.4633H110.16V92.1432C110.16 95.4432 107.38 98.2233 104.08 98.2233C100.78 98.2233 98 95.4432 98 92.1432V38.4633C98 35.4933 100.41 33.0833 103.38 33.0833H124.75C142.12 33.0833 152.72 41.7733 152.72 56.3633ZM140.56 56.3633C140.56 48.2033 135 43.5132 124.41 43.5132H110.34V69.3932H124.41C135.01 69.2233 140.56 64.5333 140.56 56.3633Z" fill="black"/>
<path d="M203.27 69.7433V92.6733C203.27 95.6233 200.84 98.2333 197.71 98.2333C194.76 98.2333 192.15 95.8033 192.15 92.6733V92.1533C189.37 96.4933 183.99 98.9233 176.52 98.9233C165.23 98.9233 157.93 92.6733 157.93 83.9833C157.93 75.2933 163.49 69.2133 178.6 69.2133H191.45V68.5233C191.45 61.7533 187.28 57.7532 179.12 57.7532C175.12 57.7532 171.13 58.6233 167.83 60.3633C165.57 61.4033 162.79 60.7133 161.58 58.4533V58.2833C160.19 55.8533 161.23 52.9033 163.84 51.6833C169.05 49.2533 175.48 48.0333 181.91 48.2133C193.9 48.3833 203.28 57.9432 203.28 69.7532L203.27 69.7433ZM191.63 82.7733V77.0433H179.64C171.65 77.0433 169.56 79.9933 169.56 83.6433C169.56 87.8133 173.03 90.5933 179.11 90.5933C184.84 90.4233 189.71 87.8133 191.62 82.7733H191.63Z" fill="black"/>
<path d="M213.17 89.2032L213.34 88.8533C214.56 86.5933 217.16 85.5533 219.59 86.5933C223.59 88.3333 228.45 89.3733 232.97 89.3733C240.27 89.3733 243.39 87.2932 243.39 83.8132C243.39 74.2632 212.64 83.2933 212.64 63.4933C212.64 54.1133 221.15 48.0333 234.53 48.0333C239.05 48.0333 243.91 48.7233 247.91 50.1133C250.69 50.9833 252.08 54.2832 250.86 56.8832V57.0533C249.64 59.3133 247.04 60.1832 244.61 59.3132C241.14 58.0932 237.84 57.5732 234.36 57.5732C227.24 57.5732 223.94 59.8332 223.94 63.1332C223.94 73.2032 254.69 64.1732 254.69 83.6332C254.69 93.0132 246.18 98.9233 232.11 98.9233C226.2 98.9233 220.12 97.7033 215.61 95.7933C213 94.7533 211.96 91.6232 213.18 89.1932L213.17 89.2032Z" fill="black"/>
<path d="M259.55 89.2032L259.72 88.8533C260.94 86.5933 263.54 85.5533 265.97 86.5933C269.97 88.3333 274.83 89.3733 279.35 89.3733C286.65 89.3733 289.77 87.2932 289.77 83.8132C289.77 74.2632 259.02 83.2933 259.02 63.4933C259.02 54.1133 267.53 48.0333 280.91 48.0333C285.43 48.0333 290.29 48.7233 294.29 50.1133C297.07 50.9833 298.46 54.2832 297.24 56.8832V57.0533C296.02 59.3133 293.42 60.1832 290.99 59.3132C287.52 58.0932 284.22 57.5732 280.74 57.5732C273.62 57.5732 270.32 59.8332 270.32 63.1332C270.32 73.2032 301.07 64.1732 301.07 83.6332C301.07 93.0132 292.56 98.9233 278.49 98.9233C272.58 98.9233 266.5 97.7033 261.99 95.7933C259.56 94.7533 258.34 91.6232 259.56 89.1932L259.55 89.2032Z" fill="black"/>
<path d="M362.38 73.3932C362.38 88.8532 351.61 98.9233 337.19 98.9233C330.94 98.9233 325.2 96.8433 321.21 92.1533V110.743C321.21 113.873 318.78 116.303 315.65 116.303H315.13C312 116.303 309.57 113.873 309.57 110.743V54.1133C309.57 50.9833 312 48.5533 315.13 48.5533C318.26 48.5533 320.69 50.9833 320.69 54.1133V55.1533C324.69 50.4633 330.42 48.0333 337.19 48.0333C351.78 48.0333 362.38 58.1032 362.38 73.3932ZM350.57 73.3932C350.57 63.8432 344.32 57.9333 335.8 57.9333C327.28 57.9333 321.03 64.0132 321.03 73.3932C321.03 82.7733 327.46 88.8533 335.8 88.8533C344.31 89.0233 350.57 82.9432 350.57 73.3932Z" fill="black"/>
<path d="M367.94 73.3932C367.94 58.4532 379.06 48.0333 394.34 48.0333C409.62 48.0333 420.92 58.6332 420.92 73.3932C420.92 88.1533 409.8 98.9233 394.34 98.9233C378.88 98.9233 367.94 88.3232 367.94 73.3932ZM409.11 73.3932C409.11 63.8432 402.86 57.9333 394.34 57.9333C385.82 57.9333 379.57 64.0132 379.57 73.3932C379.57 82.7733 385.82 88.8533 394.34 88.8533C402.85 89.0233 409.11 82.9432 409.11 73.3932Z" fill="black"/>
<path d="M456.53 49.2433V58.7933C447.67 58.7933 442.11 64.0033 442.11 74.0833V92.6733C442.11 95.8033 439.68 98.2333 436.55 98.2333H436.03C432.9 98.2333 430.47 95.8033 430.47 92.6733V54.1133C430.47 50.9833 432.9 48.5533 436.03 48.5533C439.16 48.5533 441.59 50.9833 441.59 54.1133V55.8533C444.89 50.6433 448.36 49.2532 456.53 49.2532V49.2433Z" fill="black"/>
<path d="M500.65 92.1533C501.52 94.4133 500.48 97.0132 498.22 97.8832C495.96 98.7532 493.53 99.1033 490.92 99.1033C479.98 99.1033 473.72 93.3733 473.72 82.4233V58.4532H462.78V49.0732H473.72V42.1233C473.72 39.6933 475.63 37.7833 478.06 37.7833H480.84C483.27 37.7833 485.18 39.6933 485.18 42.1233V49.0732H494.04C496.47 49.0732 498.38 50.9833 498.38 53.4133V53.9333C498.38 56.3633 496.47 58.2733 494.04 58.2733H485.18V81.8932C485.18 86.7533 487.61 89.3633 492.13 89.3633C493.17 89.3633 494.04 89.1932 494.91 89.0132C497.17 88.4932 499.43 89.5333 500.29 91.6233L500.64 92.1432L500.65 92.1533Z" fill="black"/>
<path d="M166.379 135.075C168.095 135.625 169.195 136.945 169.195 138.881C169.195 141.543 167.083 143.083 163.035 143.083H155.071V127.683H162.595C166.445 127.683 168.425 129.289 168.425 131.687C168.425 133.227 167.633 134.415 166.379 135.075ZM162.155 130.367H158.613V133.997H162.155C163.893 133.997 164.839 133.381 164.839 132.171C164.839 130.961 163.893 130.367 162.155 130.367ZM162.771 140.399C164.619 140.399 165.609 139.827 165.609 138.507C165.609 137.209 164.619 136.593 162.771 136.593H158.613V140.399H162.771ZM184.947 127.683L178.963 137.627V143.083H175.399V137.583L169.437 127.683H173.221L177.335 134.525L181.449 127.683H184.947ZM199.511 143.347C195.133 143.347 192.537 140.839 192.537 136.307V127.683H196.101V136.175C196.101 139.101 197.377 140.311 199.533 140.311C201.711 140.311 202.965 139.101 202.965 136.175V127.683H206.485V136.307C206.485 140.839 203.889 143.347 199.511 143.347ZM220.611 127.683H224.131V143.083H221.205L213.527 133.733V143.083H210.007V127.683H212.955L220.611 137.033V127.683ZM239.082 135.075C240.798 135.625 241.898 136.945 241.898 138.881C241.898 141.543 239.786 143.083 235.738 143.083H227.774V127.683H235.298C239.148 127.683 241.128 129.289 241.128 131.687C241.128 133.227 240.336 134.415 239.082 135.075ZM234.858 130.367H231.316V133.997H234.858C236.596 133.997 237.542 133.381 237.542 132.171C237.542 130.961 236.596 130.367 234.858 130.367ZM235.474 140.399C237.322 140.399 238.312 139.827 238.312 138.507C238.312 137.209 237.322 136.593 235.474 136.593H231.316V140.399H235.474ZM244.597 143.083V127.683H248.161V140.179H255.883V143.083H244.597ZM265.074 143.347C260.212 143.347 256.648 139.959 256.648 135.383C256.648 130.807 260.212 127.419 265.074 127.419C269.914 127.419 273.5 130.785 273.5 135.383C273.5 139.981 269.914 143.347 265.074 143.347ZM265.074 140.311C267.824 140.311 269.892 138.309 269.892 135.383C269.892 132.457 267.824 130.455 265.074 130.455C262.324 130.455 260.256 132.457 260.256 135.383C260.256 138.309 262.324 140.311 265.074 140.311ZM283.549 143.347C278.775 143.347 275.211 140.025 275.211 135.383C275.211 130.741 278.775 127.419 283.571 127.419C286.233 127.419 288.455 128.387 289.907 130.147L287.619 132.259C286.585 131.071 285.287 130.455 283.747 130.455C280.865 130.455 278.819 132.479 278.819 135.383C278.819 138.287 280.865 140.311 283.747 140.311C285.287 140.311 286.585 139.695 287.619 138.485L289.907 140.597C288.455 142.379 286.233 143.347 283.549 143.347ZM302.851 143.083L297.923 137.033L295.855 139.189V143.083H292.313V127.683H295.855V134.877L302.675 127.683H306.635L300.255 134.547L307.009 143.083H302.851ZM312.14 140.223H320.522V143.083H308.598V127.683H320.236V130.543H312.14V133.887H319.29V136.659H312.14V140.223ZM323.358 143.083V127.683H330.354C335.392 127.683 338.846 130.719 338.846 135.383C338.846 140.047 335.392 143.083 330.354 143.083H323.358ZM326.922 140.157H330.178C333.236 140.157 335.238 138.331 335.238 135.383C335.238 132.435 333.236 130.609 330.178 130.609H326.922V140.157ZM359.072 135.075C360.788 135.625 361.888 136.945 361.888 138.881C361.888 141.543 359.776 143.083 355.728 143.083H347.764V127.683H355.288C359.138 127.683 361.118 129.289 361.118 131.687C361.118 133.227 360.326 134.415 359.072 135.075ZM354.848 130.367H351.306V133.997H354.848C356.586 133.997 357.532 133.381 357.532 132.171C357.532 130.961 356.586 130.367 354.848 130.367ZM355.464 140.399C357.312 140.399 358.302 139.827 358.302 138.507C358.302 137.209 357.312 136.593 355.464 136.593H351.306V140.399H355.464ZM378.227 143.083H374.399L371.429 138.793H371.253H368.151V143.083H364.587V127.683H371.253C375.367 127.683 377.941 129.817 377.941 133.271C377.941 135.581 376.775 137.275 374.773 138.133L378.227 143.083ZM374.333 133.271C374.333 131.577 373.233 130.587 371.055 130.587H368.151V135.955H371.055C373.233 135.955 374.333 134.943 374.333 133.271ZM392.27 143.083L390.906 139.783H383.756L382.392 143.083H378.74L385.604 127.683H389.124L396.01 143.083H392.27ZM384.9 137.077H389.784L387.342 131.181L384.9 137.077ZM408.212 127.683H411.732V143.083H408.806L401.128 133.733V143.083H397.608V127.683H400.556L408.212 137.033V127.683ZM415.376 143.083V127.683H422.372C427.41 127.683 430.864 130.719 430.864 135.383C430.864 140.047 427.41 143.083 422.372 143.083H415.376ZM418.94 140.157H422.196C425.254 140.157 427.256 138.331 427.256 135.383C427.256 132.435 425.254 130.609 422.196 130.609H418.94V140.157ZM438.612 143.347C436.17 143.347 433.706 142.621 432.342 141.565L433.552 138.881C434.85 139.827 436.786 140.487 438.634 140.487C440.746 140.487 441.604 139.783 441.604 138.837C441.604 135.955 432.65 137.935 432.65 132.215C432.65 129.597 434.762 127.419 439.14 127.419C441.076 127.419 443.056 127.881 444.486 128.783L443.386 131.489C441.956 130.675 440.482 130.279 439.118 130.279C437.006 130.279 436.192 131.071 436.192 132.039C436.192 134.877 445.146 132.919 445.146 138.573C445.146 141.147 443.012 143.347 438.612 143.347Z" fill="#585858"/>
</svg>
